<?xml version="1.0" encoding="UTF-8" standalone="no"?>
<svg
   xmlns:dc="http://purl.org/dc/elements/1.1/"
   xmlns:cc="http://creativecommons.org/ns#"
   xmlns:rdf="http://www.w3.org/1999/02/22-rdf-syntax-ns#"
   xmlns:svg="http://www.w3.org/2000/svg"
   xmlns="http://www.w3.org/2000/svg"
   viewBox="0 0 465.36215 248.56265"
   height="248.56265"
   width="465.36215"
   xml:space="preserve"
   id="svg2"
   version="1.1"><metadata
     id="metadata8"><rdf:RDF><cc:Work
         rdf:about=""><dc:format>image/svg+xml</dc:format><dc:type
           rdf:resource="http://purl.org/dc/dcmitype/StillImage" /><dc:title></dc:title></cc:Work></rdf:RDF></metadata><defs
     id="defs6" /><g
     transform="matrix(1.3333333,0,0,1.3333333,0,3.5473998e-6)"
     id="g10"><g
       id="g12"><path
         id="path14"
         style="fill:#e26c00;fill-opacity:1;fill-rule:nonzero;stroke:none"
         d="M 161.445,139.816 80.723,186.422 0,139.816 V 46.605 L 80.723,0 161.445,46.605 Z" /><path
         id="path16"
         style="fill:#e26c00;fill-opacity:1;fill-rule:nonzero;stroke:none"
         d="m 199.66,119.609 c 3.414,0 6.133,-0.972 8.156,-2.921 2.032,-1.946 3.047,-4.579 3.047,-7.891 V 74 h -22.39 v -6.391 h 29.593 v 41.188 c 0,2.617 -0.429,4.992 -1.281,7.125 -0.855,2.137 -2.086,3.953 -3.687,5.453 -1.594,1.492 -3.528,2.637 -5.797,3.437 -2.262,0.79 -4.809,1.188 -7.641,1.188 -2.344,0 -4.531,-0.344 -6.562,-1.031 -2.024,-0.696 -3.821,-1.696 -5.391,-3 -1.574,-1.313 -2.883,-2.875 -3.922,-4.688 -1.043,-1.812 -1.75,-3.836 -2.125,-6.078 h 7.203 c 0.477,2.563 1.703,4.606 3.672,6.125 1.977,1.524 4.352,2.281 7.125,2.281 z" /><path
         id="path18"
         style="fill:#e26c00;fill-opacity:1;fill-rule:nonzero;stroke:none"
         d="m 243.91,118.797 c 3.352,0 6.055,-1.024 8.11,-3.078 2.05,-2.051 3.078,-4.754 3.078,-8.11 V 85.125 c 0,-3.363 -1.028,-6.055 -3.078,-8.078 C 249.965,75.016 247.262,74 243.91,74 h -8.89 v 44.797 z m -16.078,6.406 V 67.609 h 16.078 c 2.77,0 5.285,0.43 7.547,1.282 2.27,0.843 4.219,2.027 5.844,3.547 1.625,1.523 2.875,3.367 3.75,5.531 0.883,2.156 1.328,4.543 1.328,7.156 v 22.484 c 0,2.606 -0.445,5 -1.328,7.188 -0.875,2.187 -2.125,4.043 -3.75,5.562 -1.625,1.524 -3.574,2.711 -5.844,3.563 -2.262,0.855 -4.777,1.281 -7.547,1.281 z" /><path
         id="path20"
         style="fill:#e26c00;fill-opacity:1;fill-rule:nonzero;stroke:none"
         d="m 287.582,67.609 c 5.438,0 9.703,1.36 12.797,4.079 3.094,2.718 4.641,6.421 4.641,11.109 0,3.418 -0.977,6.211 -2.922,8.375 -1.938,2.156 -4.512,3.367 -7.719,3.625 v 0.484 c 3.687,0.219 6.555,1.528 8.609,3.922 2.051,2.399 3.078,5.652 3.078,9.766 0,2.5 -0.402,4.75 -1.203,6.75 -0.804,2 -1.965,3.711 -3.484,5.125 -1.524,1.418 -3.375,2.5 -5.563,3.25 -2.179,0.742 -4.632,1.109 -7.359,1.109 h -17.75 V 67.609 Z m -9.766,51.032 h 9.844 c 3.414,0 6.067,-0.879 7.953,-2.641 1.895,-1.758 2.844,-4.188 2.844,-7.281 0,-3.094 -0.961,-5.52 -2.875,-7.281 -1.918,-1.758 -4.559,-2.641 -7.922,-2.641 h -9.844 z m 0,-44.485 v 18.406 h 9.688 c 3.039,0 5.453,-0.812 7.234,-2.437 1.789,-1.625 2.688,-3.879 2.688,-6.766 0,-2.875 -0.883,-5.125 -2.641,-6.75 -1.762,-1.632 -4.164,-2.453 -7.203,-2.453 z" /><path
         id="path22"
         style="fill:#e26c00;fill-opacity:1;fill-rule:nonzero;stroke:none"
         d="m 321.816,67.609 v 51.032 h 27.204 v 6.562 H 314.629 V 67.609 Z" /><g
         id="g24"><path
           id="path26"
           style="fill:#ffffff;fill-opacity:1;fill-rule:nonzero;stroke:#ffffff;stroke-width:6.16819477;stroke-linecap:butt;stroke-linejoin:miter;stroke-miterlimit:4;stroke-dasharray:none;stroke-opacity:1"
           d="m 78.465,47.723 c 0,9.41 -7.625,17.035 -17.035,17.035 -9.407,0 -17.035,-7.625 -17.035,-17.035 0,-9.407 7.628,-17.035 17.035,-17.035 9.41,0 17.035,7.628 17.035,17.035 z" /></g><g
         id="g28"><path
           id="path30"
           style="fill:#ffffff;fill-opacity:1;fill-rule:nonzero;stroke:#ffffff;stroke-width:6.16819477;stroke-linecap:butt;stroke-linejoin:miter;stroke-miterlimit:4;stroke-dasharray:none;stroke-opacity:1"
           d="m 145.324,103.598 c 0,9.406 -7.625,17.035 -17.035,17.035 -9.406,0 -17.035,-7.629 -17.035,-17.035 0,-9.41 7.629,-17.036 17.035,-17.036 9.41,0 17.035,7.626 17.035,17.036 z" /></g><g
         id="g32"><path
           id="path34"
           style="fill:#ffffff;fill-opacity:1;fill-rule:nonzero;stroke:#ffffff;stroke-width:6.16819477;stroke-linecap:butt;stroke-linejoin:miter;stroke-miterlimit:4;stroke-dasharray:none;stroke-opacity:1"
           d="m 65.836,133.855 c 0,9.411 -7.625,17.036 -17.035,17.036 -9.406,0 -17.035,-7.625 -17.035,-17.036 0,-9.406 7.629,-17.035 17.035,-17.035 9.41,0 17.035,7.629 17.035,17.035 z" /></g><g
         id="g36"><path
           id="path38"
           style="fill:none;stroke:#ffffff;stroke-width:5.00314999;stroke-linecap:butt;stroke-linejoin:miter;stroke-miterlimit:4;stroke-dasharray:none;stroke-opacity:1"
           d="M 62.379,54.352 41.922,137.312 125.258,105.113 63.516,53.594" /></g><g
         id="g40"><path
           id="path42"
           style="fill:none;stroke:#ffffff;stroke-width:0.75;stroke-linecap:butt;stroke-linejoin:miter;stroke-miterlimit:4;stroke-dasharray:none;stroke-opacity:1"
           d="m 29.801,75.945 92.429,60.989" /></g></g></g></svg>