<?xml version="1.0" encoding="UTF-8"?>
<svg width="215.26" height="248.56" version="1.1" viewBox="0 0 215.26 248.56" xml:space="preserve" xmlns="http://www.w3.org/2000/svg" xmlns:cc="http://creativecommons.org/ns#" xmlns:dc="http://purl.org/dc/elements/1.1/" xmlns:rdf="http://www.w3.org/1999/02/22-rdf-syntax-ns#"><metadata><rdf:RDF><cc:Work rdf:about=""><dc:format>image/svg+xml</dc:format><dc:type rdf:resource="http://purl.org/dc/dcmitype/StillImage"/><dc:title/></cc:Work></rdf:RDF></metadata><g transform="matrix(1.3333 0 0 1.3333 0 3.5474e-6)"><path d="m161.44 139.82-80.722 46.606-80.723-46.606v-93.211l80.723-46.605 80.722 46.605z" fill="#e26c00"/><path d="m78.465 47.723c0 9.41-7.625 17.035-17.035 17.035-9.407 0-17.035-7.625-17.035-17.035 0-9.407 7.628-17.035 17.035-17.035 9.41 0 17.035 7.628 17.035 17.035z" fill="#fff" stroke="#fff" stroke-width="6.1682"/><path d="m145.32 103.6c0 9.406-7.625 17.035-17.035 17.035-9.406 0-17.035-7.629-17.035-17.035 0-9.41 7.629-17.036 17.035-17.036 9.41 0 17.035 7.626 17.035 17.036z" fill="#fff" stroke="#fff" stroke-width="6.1682"/><path d="m65.836 133.86c0 9.411-7.625 17.036-17.035 17.036-9.406 0-17.035-7.625-17.035-17.036 0-9.406 7.629-17.035 17.035-17.035 9.41 0 17.035 7.629 17.035 17.035z" fill="#fff" stroke="#fff" stroke-width="6.1682"/><path d="m62.379 54.352-20.457 82.96 83.336-32.199-61.742-51.519" fill="none" stroke="#fff" stroke-width="5.0032"/><path d="m29.801 75.945 92.429 60.989" fill="none" stroke="#fff" stroke-width=".75"/></g></svg>
